<svg width="21" height="21" viewBox="0 0 21 21" fill="none" xmlns="http://www.w3.org/2000/svg">
<path d="M6.80556 10.7781C6.80556 10.7781 8.19097 12.322 10.5 12.322C12.809 12.322 14.1944 10.7781 14.1944 10.7781M13.4028 5.63171H13.4133M7.59722 5.63171H7.60778M5.22222 16.439V18.8429C5.22222 19.3914 5.22222 19.6656 5.33752 19.8064C5.43779 19.9289 5.58984 20.0002 5.75057 20C5.93538 19.9998 6.15499 19.8285 6.59419 19.4859L9.11217 17.5217C9.62655 17.1204 9.88373 16.9198 10.1701 16.7771C10.4242 16.6505 10.6947 16.558 10.9742 16.5021C11.2892 16.439 11.6186 16.439 12.2773 16.439H14.9333C16.7068 16.439 17.5936 16.439 18.271 16.1025C18.8668 15.8065 19.3513 15.3341 19.6549 14.7531C20 14.0926 20 13.2279 20 11.4986V5.9405C20 4.21116 20 3.34649 19.6549 2.68597C19.3513 2.10496 18.8668 1.63259 18.271 1.33655C17.5936 1 16.7068 1 14.9333 1H6.06667C4.29317 1 3.40642 1 2.72903 1.33655C2.13318 1.63259 1.64875 2.10496 1.34515 2.68597C1 3.34649 1 4.21116 1 5.94049V12.322C1 13.2792 1 13.7578 1.1079 14.1504C1.40071 15.216 2.25428 16.0483 3.34707 16.3338C3.74977 16.439 4.24059 16.439 5.22222 16.439ZM13.9306 5.63171C13.9306 5.91594 13.6943 6.14635 13.4028 6.14635C13.1113 6.14635 12.875 5.91594 12.875 5.63171C12.875 5.34749 13.1113 5.11708 13.4028 5.11708C13.6943 5.11708 13.9306 5.34749 13.9306 5.63171ZM8.125 5.63171C8.125 5.91594 7.88871 6.14635 7.59722 6.14635C7.30574 6.14635 7.06944 5.91594 7.06944 5.63171C7.06944 5.34749 7.30574 5.11708 7.59722 5.11708C7.88871 5.11708 8.125 5.34749 8.125 5.63171Z" stroke="black" stroke-width="1.77778" stroke-linecap="round" stroke-linejoin="round"/>
</svg>
